<?xml version="1.0" encoding="utf-8"?>
<!-- Generator: Adobe Illustrator 26.5.0, SVG Export Plug-In . SVG Version: 6.00 Build 0)  -->
<svg version="1.1" id="Шар_1" xmlns="http://www.w3.org/2000/svg" xmlns:xlink="http://www.w3.org/1999/xlink" x="0px" y="0px"
	 viewBox="0 0 1049 327" style="enable-background:new 0 0 1049 327;" xml:space="preserve">
<style type="text/css">
	.st0{stroke:#FFFFFF;}
	.st1{fill:none;stroke:#FFFFFF;stroke-width:3;}
	.st2{fill:#FFFFFF;}
</style>
<g id="Шар_39">
	<g id="Шар_40">
		<g>
			<path vector-effect="non-scaling-stroke" class="st0" d="M1047.5,668.9L1047,705"/>
		</g>
	</g>
</g>
<path vector-effect="non-scaling-stroke" class="st1" d="M679.1,91.8c-0.2,0-0.3-0.2-0.3-0.3v-0.1l9.8-24.3c0.3-0.8,0.9-1.2,1.8-1.2
	c13.8,0.6,27.1,1.3,39.9,2c3.4,0.2,6.6,0.2,9.7,0.1c6-0.2,5.8-9.1-0.1-9.5c-12.5-0.7-25.3-1.4-38.4-2c-7.4-0.4-14.6,0-21.5-0.2
	c-10.7-0.2-19.9-0.2-27.6,0.2c-2.8,0.1-5.7,0.8-8.5,2.1c-11.8,5.2-8.3,16.9-3.5,26c1.7,3.1,4.8,5.3,8.2,3c2-1.4,2.5-3.6,1.4-5.8
	c-4.1-7.8-5.7-15.2,6.4-15.6c6.8-0.2,13.9-0.2,21.3-0.1c0.3,0,0.6,0.3,0.6,0.6c0,0.1,0,0.1,0,0.2l-10.2,24.4
	c-0.1,0.3-0.5,0.6-0.8,0.6c-3.6,0.1-12.4-0.7-11.7,5.6c0.5,4.2,4.3,4.4,7.7,4c0.7-0.1,0.9,0.2,0.6,0.8c-4.7,11.8-9,23.1-12.8,33.8
	c-1.5,4.2-4.1,10.7-2.7,15.1c2.4,7.1,12.5,11.1,19.5,12.6c8,1.7,16,1.8,23.8,0.3c9.4-1.8,19.1-4.7,26.3-11.1
	c12.8-11.4,14.4-29.6,4.1-43.3c-6.6-8.7-16.8-13.5-27.3-16.4c-3.1-0.8-6-0.4-9-0.8C683.6,92,681.3,91.9,679.1,91.8"/>
<path vector-effect="non-scaling-stroke" class="st1" d="M164.6,102.8c1.7-4.7,3.5-10.2,5.6-16.5c1.8-5.7-6.8-8.1-9-2.1
	c-12.4,34.1-25.1,70.9-37.9,106.3c-1.1,3.1-0.2,5.5,2.8,7.1c15.4,8.4,34.6,8.4,51.3,2.1c17.4-6.6,30-18.4,37.7-35.5
	c8.7-19.4,9.1-40.6,3.4-61.3c-4.8-17.3-14.9-30.6-31.5-36.5c-11.1-3.9-23.1-4.6-34.7-2.7c-22.7,3.7-45.7,15.2-61,33
	c-3.4,4-6.3,8.7-8.2,13.4c-8.4,21.2,5.8,36,24.3,43.5c5.8,2.3,9.8-5.6,3.9-8.6c-2.3-1.2-4.7-2.4-7-3.6c-9.3-5-16.5-13.5-13.3-24.7
	c2.7-9.2,9.6-17,17.5-23.3c15-12,34.9-20.3,54.3-21.1c18.4-0.7,35,6.7,43.2,23.5c2.7,5.5,4.6,11.9,5.7,19.2
	c2.6,16.8,0.2,33-7.2,48.5c-4.2,8.8-10.5,16-18.8,21.5c-14.8,9.8-34.8,13.6-51.1,5.7c-0.5-0.2-0.7-0.7-0.5-1.2
	C143.6,161.6,153.9,132.6,164.6,102.8"/>
<path vector-effect="non-scaling-stroke" class="st1" d="M593.7,98.5c-1.2-12-7.2-19.4-18.2-22.1c-3-0.8-6.7,0.5-9.8,1
	c-4.9,0.7-9.8,3.8-13.5,6.8c-14,11.8-17.4,30.5-16.3,48.4c0.3,4.5,1.8,11.5,3.8,14.1c0.6,2,1.7,3,4.1,4.8
	c12.6,9.8,26.4,4.6,35.2-6.7c3.9-5,7.2-11.2,10.1-18.6C592.6,117,594.7,108.3,593.7,98.5"/>
<path vector-effect="non-scaling-stroke" class="st1" d="M393.5,139.6c0.7-0.7,1-0.6,0.9,0.4c-0.2,6,1.7,14.1,9.6,12.1
	c4.7-1.2,8.7-3.9,12-8.1c7.6-9.6,13.7-20.9,18.5-34c2.3-6.3-6.3-10.2-9.2-2.9c-3.8,9.7-8.4,18.7-13.7,27.2c-2.4,3.7-4.8,6.7-7.4,8.9
	c-0.5,0.4-1.3,0.4-1.7-0.1c-0.1-0.1-0.2-0.3-0.2-0.4c-0.4-1.1-0.4-2.3-0.1-3.6c1.5-6.8,4.4-13,7.3-19.5c3.9-9,5.1-18.7,3.7-28.3
	c-0.4-2.8-1.2-5.2-2.4-7.3c-4.1-7.1-10.1-9.2-18.1-6.5c-4.3,1.4-8.1,2.8-11.2,6.2c-9.2,10-15.6,21.1-19.3,33.3
	c-1.9,6.3-2.7,13.4-2.2,21.1c0.7,12.3,8.7,19.4,20.6,12.4C385.1,147.8,389.5,143.8,393.5,139.6"/>
<path vector-effect="non-scaling-stroke" class="st1" d="M309,113.5c3.1-9,6.8-18.3,11-27.9c0.8-1.9,1.4-4.3,0.3-6.2
	c-2.1-4.1-7.4-2.3-9,1.3c-6.8,16.3-13,32.2-17.3,49.1c-1.5,5.7-2.4,11.4-2.9,17.2c-0.6,6.7,8.4,7.4,9.5,0.7
	c1.2-7.7,2.7-15.1,4.6-22.2c0.1-0.4,0.5-0.8,0.9-0.9l20.1-3.8c0.3-0.1,0.5,0.1,0.6,0.4c0,0.1,0,0.1,0,0.2
	c-1.1,5.8-1.7,11.3-1.8,16.6c-0.2,7.1,2.9,19.2,13,15.9c4.4-1.4,8.5-6.2,10.9-9.9c3.7-5.7,7-12.2,9.9-19.6c1.2-3,1.8-5.8,2-8.3
	c0.3-6.3-8-6.1-9.4-0.9c-2,7.6-5,15.1-8.9,21.5c-1.7,2.9-3.9,5.3-6.3,7.4c-0.2,0.2-0.5,0.1-0.6-0.1l-0.1-0.1c-0.6-1.6-0.8-3.3-0.7-5
	c0.5-10.7,2.2-21,5.4-30.9c1.7-5.4,4.6-11.4,8.6-18.1c4.1-6.8-4.1-11.7-7.9-5.9c-4.9,7.6-8.8,16.2-11.5,25.8c-0.1,0.5-0.5,0.8-1,0.9
	l-18.7,3.5C309,114.2,308.8,114,309,113.5"/>
<path vector-effect="non-scaling-stroke" class="st1" d="M269.8,140.3c-0.7,0.7-1,0.6-0.9-0.4c0.3-3.9,1.3-7.7,2.8-11.2
	c2.5-5.7,4.9-11.4,7.4-17.2c1.7-4,2.8-7.6,3.3-11c0.8-5.4-7.3-7.5-9.2-3.1c-5.7,13.4-10.9,24.2-17.5,34.8
	c-2.9,4.7-7.8,11.9-13.2,12.5c-3.4,0.3-4.4-3.8-4.4-6.4c-0.1-7.9,2.7-15.4,6.2-22.7c3.5-7.3,8.5-15.6,15-24.9
	c1.3-1.8,2.8-5.2,1.4-7.4c-4-5.7-9.1,1.3-11.2,4.4c-11,15.8-26.8,41.8-18.5,61.3c5.9,13.9,22.4,0.1,27.6-6c0.2-0.2,0.5-0.2,0.7-0.1
	c0.1,0.1,0.2,0.2,0.2,0.3c0.7,3.5,1.9,7.7,4.9,9.7c2.7,1.8,6.9-0.2,9-2.2c3.2-3,6-6.5,8.4-10.3c5-8.1,9.1-15.9,12.2-23.5
	c0.6-1.4,0.8-2.8,0.8-4.3c-0.1-2.5-2.8-4.3-5.1-4c-1.9,0.2-3.5,1.6-4.2,3.4c-3.6,9.4-8.2,17.9-13.8,25.8
	C271.1,138.7,270.4,139.5,269.8,140.3"/>
<path vector-effect="non-scaling-stroke" class="st1" d="M836.4,124.8c-0.4,7.4,0.3,14.8,2.2,22.2c1.8,7.3,6,12.2,12.5,14.6
	c2.7,1,5.7,1.3,8.9,0.9c4-0.6,7.2-1.9,9.6-3.9c12.3-10.2,18.6-26.7,20.9-42.8c1.6-11.1,0.2-27.2-11.1-32.1c-9-3.9-18.8-1.2-26.2,5.3
	c-7.2,6.3-11.6,13.9-14.7,22.8c-0.2,0.7-0.8,1.3-1.5,1.5l-7.1,2.3c-0.7,0.2-1,0-0.7-0.7c2.1-6.7,4.2-13.5,6.3-20.4
	c0.6-2,0.9-3.5,0.9-4.4c-0.3-5.7-7.8-6-9.5-0.5c-2.9,8.9-5.5,17.9-8.2,26.9c-3.1,10.4-5.6,21.3-7.5,32.8c-0.5,3,0.8,4.7,3.7,5.3
	c0.1,0,0.2,0,0.2,0c3,0.6,4.7-0.6,5.3-3.6c1.4-7.2,2.9-14.4,4.6-21.6c0.3-1.2,1-2,2.2-2.5c3-1.3,5.9-2.1,8.7-2.6
	C836.2,124.1,836.4,124.3,836.4,124.8"/>
<path vector-effect="non-scaling-stroke" class="st1" d="M936.1,134.3c-0.2-0.1-0.3-0.3-0.2-0.5c0-0.1,0.1-0.2,0.1-0.2
	c4-2.9,7.6-6.2,10.6-10c5.8-7.3,7.1-17,2.5-25.4c-5.8-10.7-19.3-17.3-31.1-12.4c-7.5,3.1-12.1,7.8-17.3,14c-1,1.2-1.8,2.6-2.3,4.2
	c-2.1,5.9,5.6,9.4,8.7,4c6.1-10.7,19.2-19.6,30.4-9.1c1.9,1.8,3.2,3.8,4,6.1c4.7,14.3-16,23.8-25.8,28.7c-1.9,0.9-2.7,2.5-2.4,4.7
	c0.4,3.4,2.8,4.8,6,4.4c16.6-2.1,31,6.2,33.5,23.7c2.1,15.1-1.9,28.1-12.1,38.9c-12,12.8-30.3,13.2-45.2,4.6
	c-5.6-3.2-9.3-8.2-11.3-15c-2.7-9.1-0.6-22.5,7.8-28.8c3.4-2.5,6.6-2.9,9.7-1.2c2.4,1.3,4.6,3.3,6.6,5.8c2,2.6,4.3,3.1,6.8,1.1
	c2.3-1.8,2.5-4,0.7-6.7c-4.3-6.3-11.9-12.1-19.6-11c-9.7,1.3-16.8,9.3-20,18.1c-4.5,12.2-3.5,23.6,3,34.3c8,13.2,23.8,19,38.8,18.8
	c12.9-0.1,25-7.8,33.4-17.2c3.1-3.4,5.3-6.8,6.6-10.1c2.4-5.9,3.9-12.6,4.7-20.1c0.6-6.1,0.2-12-1.2-17.6
	C958.1,147.2,949.7,138.5,936.1,134.3"/>
<path vector-effect="non-scaling-stroke" class="st1" d="M502.7,106.8c0.7-1.1,0.9-1.1,0.6,0.2c-2.5,10.9-4.3,19.5-5.4,25.9
	c-0.6,3.5-0.7,7.3-0.4,11.4c0.3,3.7,1.7,6.4,4.2,8.1c5.5,3.8,12-1.9,15.6-6.4c6.8-8.6,12.3-19,16.5-31.2c1.2-3.5,1.5-8.4-3.1-9.5
	c-3.1-0.8-5.5,2.1-5.9,5c-0.2,1.4-0.6,2.8-1.1,4.2c-3.9,10.3-8.9,19.3-15.3,27c-0.3,0.4-0.6,0.6-1,0.9c-0.6,0.3-0.9,0.2-0.8-0.5
	c0.9-11.6,4.4-23.2,6.3-34.4c0.8-4.5,1.5-12-1.6-15.6c-4.8-5.6-10.9,0.4-13.4,4.8c-3.2,5.5-7,12-11.5,19.4c-1.5,2.6-3,5.4-4.5,8.5
	c-0.7,1.4-0.9,1.4-0.6-0.2c1.1-5.7,2.2-11.4,3.1-17.1c0.9-5.1,1.2-13.2-2.1-17.5c-6.3-8.4-14.8-0.1-18.4,5.6
	c-3.3,5.2-6.1,10.1-8.4,14.8c-3.9,7.9-8,16.1-12.1,24.6c-1.8,3.7-3.8,7.2-6.2,10.7c-0.3,0.4-0.8,0.5-1.2,0.2
	c-0.1-0.1-0.2-0.2-0.3-0.3c-1.8-3.2-0.4-7.2,1-10.4c1.6-3.8,3.6-8,5.9-12.6c1.3-2.6,0.7-4.7-1.8-6.2c-0.1,0-0.1-0.1-0.2-0.1
	c-2.5-1.5-4.6-1-6.1,1.5c-5.2,8.5-11,21.9-7.7,31.1c2,5.5,8.2,8.9,13.5,5.1c5-3.5,9-9.9,11.8-15.3c4.4-8.5,8.7-17.2,13-26.1
	c2.6-5.4,5.4-10.6,8.5-15.7c0.3-0.4,0.7-0.6,1.2-0.5c0.4,0.1,0.7,0.4,0.7,0.8c-0.2,5.5-0.9,10.8-2,15.9c-1.4,6.6-2.6,13.3-3.6,20
	c-0.5,3.4-0.6,6.5-0.2,9.5c0.5,3.8,4.1,5.7,7.5,4c1.4-0.8,2.7-1.8,3.7-3.1c3.1-4.1,6-8.6,8.6-13.4
	C494.2,121.2,498.6,113.6,502.7,106.8"/>
<path vector-effect="non-scaling-stroke" class="st1" d="M783.3,100.9c1.5,6.8-0.2,15.3-2.1,22c-2.2,7.9-3.6,14.7-4.3,20.6
	c-0.7,5.8,0.6,10.5,3.9,14c12,13.1,27.9-27.8,30.5-34.4s-6-10.7-8.4-4.6c-3.1,7.9-6.1,15.3-9.1,22.3c-1.5,3.5-3.2,6.7-5.2,9.7
	c-0.2,0.4-0.7,0.5-1.1,0.2c-0.1-0.1-0.2-0.2-0.3-0.4c-0.8-1.8-1.1-3.7-0.9-5.6c1.3-14,7.8-26.8,7.1-41.3c-0.2-3.5-2.2-16.1-7.8-14.2
	c-5.3,1.8-9.2,6.3-12.4,10.8c-6.8,9.8-12.3,20-17.2,30.8c-1.5,3.3-3.1,6.3-4.7,8.9c-2,3.1-5.2,7.8-8.5,9.3c-0.4,0.2-0.9,0-1.1-0.4
	c0-0.1-0.1-0.2-0.1-0.3c0-1.6,0.1-3.1,0.5-4.5c1.1-4.2,2.5-8.4,4.3-12.6c1.2-2.9,0.7-5.7-2.3-6.9c-2.8-1-4.7-0.3-5.9,2.2
	c-3.2,6.8-7.2,19.2-4.6,26.5c3.2,8.9,11.9,9.1,17.9,3.1c4.8-4.8,8.6-10.6,11.7-17.4c6.1-13.6,11.7-25.1,16.9-34.5
	c0.7-1.4,1.6-2.6,2.6-3.7c0.2-0.2,0.4-0.2,0.6,0C783.2,100.7,783.3,100.8,783.3,100.9"/>
<path vector-effect="non-scaling-stroke" class="st1" d="M660.2,151.2c6.3,3.7,14.5,4.3,22.3,4.3c4.4,0,8.8-0.6,13.2-2
	c4.5-1.4,8.9-3.4,13-6c9.8-6.3,16.2-18.8,8.2-29.5c-6.6-8.9-15.8-14.1-27.5-15.7c-4.4-0.6-8.8-1-13.3-1.2c-0.8,0-1.6,0.4-1.9,1.2
	c-3.1,7.9-6.2,16-9.5,24.2c-3,7.5-5.3,14-6.9,19.6C657.3,148.2,658.1,149.9,660.2,151.2"/>
<path vector-effect="non-scaling-stroke" class="st1" d="M581.1,120.8c3.9-10,7.9-27.9-4.7-33.8c-2.3-1.1-4.9-1.2-7.9-0.4
	c-5.2,1.4-9.6,4.1-13,8.1c-3.7,4.3-5.4,4.5-8.1,13.9c-1.5,7.6-2.1,15.4-1.6,23.3c0.2,3.4,1.1,6.8,2.8,10c1.4,2.7,3.8,4.5,7.2,5.5
	c3.3,0.9,6.4,0.3,9.1-1.9C572.8,139.3,577.3,130.5,581.1,120.8"/>
<path vector-effect="non-scaling-stroke" class="st1" d="M390.4,132.5c7.4-9.6,13.1-21,14.6-33.1c0.4-3.4-0.2-10-3.5-12.3
	c-3-2.1-8.1-0.1-10.6,1.8c-2.4,1.8-4.5,3.9-6.4,6.3c-10.2,12.8-16.2,28-14.5,44.6c0.5,5.4,4.7,6,8.5,3.6
	C383,140.5,387,136.9,390.4,132.5"/>
<path vector-effect="non-scaling-stroke" class="st1" d="M876.8,131c3.6-9.5,5-18.7,4.3-27.5c-0.7-8.1-5.8-14.4-14.6-10.8
	c-12.4,5-19.1,18.1-20.3,31.2c-0.7,7.5,0.4,15.5,3.4,23.9c0.6,1.8,1.7,3.1,3,3.9c4.9,2.6,10.7-0.1,14.3-3.8
	C871.2,143.5,874.5,136.9,876.8,131"/>
<g id="Шар_35">
	<path class="st2" d="M61.6,29.8l930-0.1c1,0,1.8,0.8,1.8,1.8c-0.1,83.6,0,167.3,0.1,250.9c0,1.1-0.1,2.2-0.2,3.3
		c-0.1,0.4-0.3,0.6-0.7,0.6c-1.5,0.1-2.9-0.1-4.2-0.7c-11.4-5.1-24.7-10.7-40.1-16.9c-4.5-1.8-8.9-3.6-13.3-5.5c-5-2.1-10-4-15-5.7
		c-2-0.7-4-1.4-5.9-2.1c-20.6-7.5-41-14.4-61.5-20.7c-4.6-1.4-9.2-2.8-14-4.1c-4.7-1.3-9.4-2.6-14-3.9c-17-4.8-34-9-51.1-12.7
		l-4.9-1.2l-28.5-5.8c-14.3-2.7-26.1-4.8-35.2-6.2c-21.1-3.3-41.8-5.9-62-7.9c-74.9-7.5-149.8-7.8-224.7-1.1c-0.1,0-0.1,0-0.2,0.1
		c0,0,0,0,0,0.1c0.1,0,0.1,0.1,0,0.1c-17.2,1.5-34.3,3.5-51.2,5.9l-9.6,1.4l-16.9,2.6l-11.3,1.9c-91,15.9-178.7,42.7-263,80.2
		c-2.2,1-4.5,1.8-6.9,2.5c-0.8,0.2-1.7-0.2-2-1.1c0-0.1-0.1-0.3-0.1-0.4c0-1.2-0.1-2.3-0.1-3.5c-0.2-91.5-0.2-174,0-247.4
		c0-1.1,0-2.3,0-3.5c0-0.4,0.4-0.8,0.8-0.8L61.6,29.8z M618.5,186.8c109,8.8,214.6,32.9,316.6,72.5c12.4,4.8,25,9.8,37.4,15.2
		c5.6,2.4,11,4.8,16.4,7.1c0.5,0.2,0.7,0,0.7-0.5v-247c0-0.3-0.2-0.5-0.5-0.5H61.4c-0.5,0-0.8,0.2-0.8,0.8v247
		c0,0.2,0.2,0.4,0.5,0.4c0.1,0,0.1,0,0.2,0c128-57.2,261.6-89.5,400.8-97C514.7,182,566.9,182.7,618.5,186.8z"/>
</g>
</svg>
