<svg width="1049" height="327" viewBox="0 0 1049 327" fill="none" xmlns="http://www.w3.org/2000/svg">
<g clip-path="url(#clip0_1_2)">
<path d="M164.6 102.8C166.3 98.1 168.1 92.6 170.2 86.3C172 80.6 163.4 78.2 161.2 84.2C148.8 118.3 136.1 155.1 123.3 190.5C122.2 193.6 123.1 196 126.1 197.6C141.5 206 160.7 206 177.4 199.7C194.8 193.1 207.4 181.3 215.1 164.2C223.8 144.8 224.2 123.6 218.5 102.9C213.7 85.6 203.6 72.3 187 66.4C175.9 62.5 163.9 61.8 152.3 63.7C129.6 67.4 106.6 78.9 91.3 96.7C87.9 100.7 85 105.4 83.1 110.1C74.7 131.3 88.9 146.1 107.4 153.6C113.2 155.9 117.2 148 111.3 145C109 143.8 106.6 142.6 104.3 141.4C95 136.4 87.8 127.9 91 116.7C93.7 107.5 100.6 99.7 108.5 93.4C123.5 81.4 143.4 73.1 162.8 72.3C181.2 71.6 197.8 79 206 95.8C208.7 101.3 210.6 107.7 211.7 115C214.3 131.8 211.9 148 204.5 163.5C200.3 172.3 194 179.5 185.7 185C170.9 194.8 150.9 198.6 134.6 190.7C134.1 190.5 133.9 190 134.1 189.5C143.6 161.6 153.9 132.6 164.6 102.8Z" fill="#FF0000"/>
<path d="M309 113.5C312.1 104.5 315.8 95.2 320 85.6C320.8 83.7 321.4 81.3 320.3 79.4C318.2 75.3 312.9 77.1 311.3 80.7C304.5 97 298.3 112.9 294 129.8C292.5 135.5 291.6 141.2 291.1 147C290.5 153.7 299.5 154.4 300.6 147.7C301.8 140 303.3 132.6 305.2 125.5C305.3 125.1 305.7 124.7 306.1 124.6L326.2 120.8C326.5 120.7 326.7 120.9 326.8 121.2C326.8 121.3 326.8 121.3 326.8 121.4C325.7 127.2 325.1 132.7 325 138C324.8 145.1 327.9 157.2 338 153.9C342.4 152.5 346.5 147.7 348.9 144C352.6 138.3 355.9 131.8 358.8 124.4C360 121.4 360.6 118.6 360.8 116.1C361.1 109.8 352.8 110 351.4 115.2C349.4 122.8 346.4 130.3 342.5 136.7C340.8 139.6 338.6 142 336.2 144.1C336 144.3 335.7 144.2 335.6 144L335.5 143.9C334.9 142.3 334.7 140.6 334.8 138.9C335.3 128.2 337 117.9 340.2 108C341.9 102.6 344.8 96.6 348.8 89.9C352.9 83.1 344.7 78.2 340.9 84C336 91.6 332.1 100.2 329.4 109.8C329.3 110.3 328.9 110.6 328.4 110.7L309.7 114.2C309 114.2 308.8 114 309 113.5Z" fill="#FF0000"/>
<path d="M269.8 140.3C269.1 141 268.8 140.9 268.9 139.9C269.2 136 270.2 132.2 271.7 128.7C274.2 123 276.6 117.3 279.1 111.5C280.8 107.5 281.9 103.9 282.4 100.5C283.2 95.1 275.1 93 273.2 97.4C267.5 110.8 262.3 121.6 255.7 132.2C252.8 136.9 247.9 144.1 242.5 144.7C239.1 145 238.1 140.9 238.1 138.3C238 130.4 240.8 122.9 244.3 115.6C247.8 108.3 252.8 100 259.3 90.7C260.6 88.9 262.1 85.5 260.7 83.3C256.7 77.6 251.6 84.6 249.5 87.7C238.5 103.5 222.7 129.5 231 149C236.9 162.9 253.4 149.1 258.6 143C258.8 142.8 259.1 142.8 259.3 142.9C259.4 143 259.5 143.1 259.5 143.2C260.2 146.7 261.4 150.9 264.4 152.9C267.1 154.7 271.3 152.7 273.4 150.7C276.6 147.7 279.4 144.2 281.8 140.4C286.8 132.3 290.9 124.5 294 116.9C294.6 115.5 294.8 114.1 294.8 112.6C294.7 110.1 292 108.3 289.7 108.6C287.8 108.8 286.2 110.2 285.5 112C281.9 121.4 277.3 129.9 271.7 137.8C271.1 138.7 270.4 139.5 269.8 140.3Z" fill="#FF0000"/>
<path d="M936.1 134.3C935.9 134.2 935.8 134 935.9 133.8C935.9 133.7 936 133.6 936 133.6C940 130.7 943.6 127.4 946.6 123.6C952.4 116.3 953.7 106.6 949.1 98.2C943.3 87.5 929.8 80.9 918 85.8C910.5 88.9 905.9 93.6 900.7 99.8C899.7 101 898.9 102.4 898.4 104C896.3 109.9 904 113.4 907.1 108C913.2 97.3 926.3 88.4 937.5 98.9C939.4 100.7 940.7 102.7 941.5 105C946.2 119.3 925.5 128.8 915.7 133.7C913.8 134.6 913 136.2 913.3 138.4C913.7 141.8 916.1 143.2 919.3 142.8C935.9 140.7 950.3 149 952.8 166.5C954.9 181.6 950.9 194.6 940.7 205.4C928.7 218.2 910.4 218.6 895.5 210C889.9 206.8 886.2 201.8 884.2 195C881.5 185.9 883.6 172.5 892 166.2C895.4 163.7 898.6 163.3 901.7 165C904.1 166.3 906.3 168.3 908.3 170.8C910.3 173.4 912.6 173.9 915.1 171.9C917.4 170.1 917.6 167.9 915.8 165.2C911.5 158.9 903.9 153.1 896.2 154.2C886.5 155.5 879.4 163.5 876.2 172.3C871.7 184.5 872.7 195.9 879.2 206.6C887.2 219.8 903 225.6 918 225.4C930.9 225.3 943 217.6 951.4 208.2C954.5 204.8 956.7 201.4 958 198.1C960.4 192.2 961.9 185.5 962.7 178C963.3 171.9 962.9 166 961.5 160.4C958.1 147.2 949.7 138.5 936.1 134.3Z" fill="#FF0000"/>
<path d="M502.7 106.8C503.4 105.7 503.6 105.7 503.3 107C500.8 117.9 499 126.5 497.9 132.9C497.3 136.4 497.2 140.2 497.5 144.3C497.8 148 499.2 150.7 501.7 152.4C507.2 156.2 513.7 150.5 517.3 146C524.1 137.4 529.6 127 533.8 114.8C535 111.3 535.3 106.4 530.7 105.3C527.6 104.5 525.2 107.4 524.8 110.3C524.6 111.7 524.2 113.1 523.7 114.5C519.8 124.8 514.8 133.8 508.4 141.5C508.1 141.9 507.8 142.1 507.4 142.4C506.8 142.7 506.5 142.6 506.6 141.9C507.5 130.3 511 118.7 512.9 107.5C513.7 103 514.4 95.5 511.3 91.9C506.5 86.3 500.4 92.3 497.9 96.7C494.7 102.2 490.9 108.7 486.4 116.1C484.9 118.7 483.4 121.5 481.9 124.6C481.2 126 481 126 481.3 124.4C482.4 118.7 483.5 113 484.4 107.3C485.3 102.2 485.6 94.1 482.3 89.8C476 81.4 467.5 89.7 463.9 95.4C460.6 100.6 457.8 105.5 455.5 110.2C451.6 118.1 447.5 126.3 443.4 134.8C441.6 138.5 439.6 142 437.2 145.5C436.9 145.9 436.4 146 436 145.7C435.9 145.6 435.8 145.5 435.7 145.4C433.9 142.2 435.3 138.2 436.7 135C438.3 131.2 440.3 127 442.6 122.4C443.9 119.8 443.3 117.7 440.8 116.2C440.7 116.2 440.7 116.1 440.6 116.1C438.1 114.6 436 115.1 434.5 117.6C429.3 126.1 423.5 139.5 426.8 148.7C428.8 154.2 435 157.6 440.3 153.8C445.3 150.3 449.3 143.9 452.1 138.5C456.5 130 460.8 121.3 465.1 112.4C467.7 107 470.5 101.8 473.6 96.7C473.9 96.3 474.3 96.1 474.8 96.2C475.2 96.3 475.5 96.6 475.5 97C475.3 102.5 474.6 107.8 473.5 112.9C472.1 119.5 470.9 126.2 469.9 132.9C469.4 136.3 469.3 139.4 469.7 142.4C470.2 146.2 473.8 148.1 477.2 146.4C478.6 145.6 479.9 144.6 480.9 143.3C484 139.2 486.9 134.7 489.5 129.9C494.2 121.2 498.6 113.6 502.7 106.8Z" fill="#FF0000"/>
<path d="M783.3 100.9C784.8 107.7 783.1 116.2 781.2 122.9C779 130.8 777.6 137.6 776.9 143.5C776.2 149.3 777.5 154 780.8 157.5C792.8 170.6 808.7 129.7 811.3 123.1C813.9 116.5 805.3 112.4 802.9 118.5C799.8 126.4 796.8 133.8 793.8 140.8C792.3 144.3 790.6 147.5 788.6 150.5C788.4 150.9 787.9 151 787.5 150.7C787.4 150.6 787.3 150.5 787.2 150.3C786.4 148.5 786.1 146.6 786.3 144.7C787.6 130.7 794.1 117.9 793.4 103.4C793.2 99.9 791.2 87.3 785.6 89.2C780.3 91 776.4 95.5 773.2 100C766.4 109.8 760.9 120 756 130.8C754.5 134.1 752.9 137.1 751.3 139.7C749.3 142.8 746.1 147.5 742.8 149C742.4 149.2 741.9 149 741.7 148.6C741.7 148.5 741.6 148.4 741.6 148.3C741.6 146.7 741.7 145.2 742.1 143.8C743.2 139.6 744.6 135.4 746.4 131.2C747.6 128.3 747.1 125.5 744.1 124.3C741.3 123.3 739.4 124 738.2 126.5C735 133.3 731 145.7 733.6 153C736.8 161.9 745.5 162.1 751.5 156.1C756.3 151.3 760.1 145.5 763.2 138.7C769.3 125.1 774.9 113.6 780.1 104.2C780.8 102.8 781.7 101.6 782.7 100.5C782.9 100.3 783.1 100.3 783.3 100.5C783.2 100.7 783.3 100.8 783.3 100.9Z" fill="#FF0000"/>
<path fill-rule="evenodd" clip-rule="evenodd" d="M678.8 91.5C678.8 91.6 678.9 91.8 679.1 91.8L679.173 91.8033C681.351 91.9023 683.625 92.0056 685.8 92.5C687.001 92.6601 688.186 92.692 689.374 92.7241C691.154 92.772 692.941 92.8202 694.8 93.3C705.3 96.2 715.5 101 722.1 109.7C732.4 123.4 730.8 141.6 718 153C710.8 159.4 701.1 162.3 691.7 164.1C683.9 165.6 675.9 165.5 667.9 163.8C660.9 162.3 650.8 158.3 648.4 151.2C647.107 147.135 649.227 141.279 650.74 137.099C650.865 136.754 650.986 136.42 651.1 136.1C654.9 125.4 659.2 114.1 663.9 102.3C664.2 101.7 664 101.4 663.3 101.5C659.9 101.9 656.1 101.7 655.6 97.5C654.979 91.908 661.842 91.9099 665.91 91.911C666.425 91.9111 666.895 91.9112 667.3 91.9C667.6 91.9 668 91.6 668.1 91.3L678.3 66.9V66.7C678.3 66.4 678 66.1 677.7 66.1C670.3 66 663.2 66 656.4 66.2C644.3 66.6 645.9 74 650 81.8C651.1 84 650.6 86.2 648.6 87.6C645.2 89.9 642.1 87.7 640.4 84.6C635.6 75.5 632.1 63.8 643.9 58.6C646.7 57.3 649.6 56.6 652.4 56.5C660.1 56.1 669.3 56.1 680 56.3C682.947 56.3854 685.949 56.3614 688.997 56.337C693.087 56.3042 697.261 56.2708 701.5 56.5C714.6 57.1 727.4 57.8 739.9 58.5C745.8 58.9 746 67.8 740 68C736.9 68.1 733.7 68.1 730.3 67.9C717.5 67.2 704.2 66.5 690.4 65.9C689.5 65.9 688.9 66.3 688.6 67.1L678.8 91.4V91.5ZM682.5 155.5C674.7 155.5 666.5 154.9 660.2 151.2C658.1 149.9 657.3 148.2 657.8 146.1C659.4 140.5 661.7 134 664.7 126.5C666.925 120.971 669.059 115.488 671.163 110.081C672.18 107.469 673.19 104.874 674.2 102.3C674.5 101.5 675.3 101.1 676.1 101.1C680.6 101.3 685 101.7 689.4 102.3C701.1 103.9 710.3 109.1 716.9 118C724.9 128.7 718.5 141.2 708.7 147.5C704.6 150.1 700.2 152.1 695.7 153.5C691.3 154.9 686.9 155.5 682.5 155.5Z" fill="#FF0000"/>
<path d="M679.1 91.8L679.123 91.3005L679.111 91.3H679.1V91.8ZM679.173 91.8033L679.151 92.3028L679.151 92.3028L679.173 91.8033ZM685.8 92.5L685.689 92.9876L685.711 92.9926L685.734 92.9956L685.8 92.5ZM689.374 92.7241L689.387 92.2242L689.387 92.2242L689.374 92.7241ZM694.8 93.3L694.933 92.818L694.925 92.8159L694.8 93.3ZM722.1 109.7L722.5 109.4L722.498 109.398L722.1 109.7ZM718 153L718.332 153.374L718.333 153.373L718 153ZM691.7 164.1L691.606 163.609L691.606 163.609L691.7 164.1ZM667.9 163.8L667.795 164.289L667.796 164.289L667.9 163.8ZM648.4 151.2L647.924 151.352L647.926 151.36L648.4 151.2ZM650.74 137.099L650.27 136.929L650.27 136.929L650.74 137.099ZM651.1 136.1L651.571 136.268L651.571 136.267L651.1 136.1ZM663.9 102.3L663.453 102.076L663.443 102.095L663.436 102.115L663.9 102.3ZM663.3 101.5L663.358 101.997L663.371 101.995L663.3 101.5ZM655.6 97.5L655.103 97.5552L655.104 97.5591L655.6 97.5ZM665.91 91.911L665.91 91.411L665.91 91.411L665.91 91.911ZM667.3 91.9V91.3998L667.286 91.4002L667.3 91.9ZM668.1 91.3L667.639 91.1072L667.632 91.1243L667.626 91.1419L668.1 91.3ZM678.3 66.9L678.761 67.0928L678.8 67.0003V66.9H678.3ZM677.7 66.1L677.693 66.6H677.7V66.1ZM656.4 66.2L656.385 65.7002L656.384 65.7003L656.4 66.2ZM650 81.8L650.447 81.5763L650.443 81.5674L650 81.8ZM648.6 87.6L648.88 88.0142L648.887 88.0096L648.6 87.6ZM640.4 84.6L639.958 84.8333L639.962 84.8404L640.4 84.6ZM643.9 58.6L644.102 59.0576L644.111 59.0535L643.9 58.6ZM652.4 56.5L652.418 56.9997L652.426 56.9993L652.4 56.5ZM680 56.3L680.015 55.8002L680.009 55.8001L680 56.3ZM688.997 56.337L689.001 56.837L688.997 56.337ZM701.5 56.5L701.473 56.9993L701.477 56.9995L701.5 56.5ZM739.9 58.5L739.934 58.0011L739.928 58.0008L739.9 58.5ZM740 68L740.016 68.4997L740.017 68.4997L740 68ZM730.3 67.9L730.329 67.4009L730.327 67.4007L730.3 67.9ZM690.4 65.9L690.422 65.4005L690.411 65.4H690.4V65.9ZM688.6 67.1L689.064 67.2871L689.068 67.2756L688.6 67.1ZM678.8 91.4L678.336 91.213L678.3 91.303V91.4H678.8ZM660.2 151.2L659.937 151.625L659.947 151.631L660.2 151.2ZM657.8 146.1L657.319 145.963L657.316 145.973L657.314 145.984L657.8 146.1ZM664.7 126.5L664.236 126.313L664.236 126.314L664.7 126.5ZM671.163 110.081L671.629 110.263L671.629 110.263L671.163 110.081ZM674.2 102.3L674.666 102.483L674.668 102.476L674.2 102.3ZM676.1 101.1L676.122 100.6L676.111 100.6H676.1V101.1ZM689.4 102.3L689.468 101.805L689.468 101.805L689.4 102.3ZM716.9 118L716.498 118.298L716.5 118.299L716.9 118ZM708.7 147.5L708.968 147.922L708.97 147.921L708.7 147.5ZM695.7 153.5L695.551 153.023L695.548 153.024L695.7 153.5ZM679.1 91.3C679.186 91.3 679.244 91.3484 679.265 91.3752C679.275 91.3872 679.281 91.3988 679.286 91.4111C679.289 91.4197 679.3 91.4496 679.3 91.5H678.3C678.3 91.6816 678.376 91.8639 678.485 91.9998C678.606 92.1516 678.814 92.3 679.1 92.3V91.3ZM679.196 91.3039L679.123 91.3005L679.077 92.2995L679.151 92.3028L679.196 91.3039ZM685.911 92.0124C683.684 91.5064 681.366 91.4024 679.196 91.3039L679.151 92.3028C681.336 92.4021 683.565 92.5047 685.689 92.9876L685.911 92.0124ZM689.387 92.2242C688.195 92.1921 687.036 92.1604 685.866 92.0044L685.734 92.9956C686.965 93.1598 688.176 93.192 689.36 93.2239L689.387 92.2242ZM694.925 92.8159C693.003 92.3198 691.16 92.272 689.387 92.2242L689.36 93.2239C691.147 93.272 692.879 93.3206 694.675 93.7841L694.925 92.8159ZM722.498 109.398C715.802 100.57 705.477 95.7303 694.933 92.818L694.667 93.782C705.123 96.6698 715.198 101.43 721.702 110.002L722.498 109.398ZM718.333 153.373C731.331 141.796 732.952 123.302 722.5 109.4L721.7 110C731.848 123.498 730.269 141.404 717.667 152.627L718.333 153.373ZM691.794 164.591C701.214 162.787 711.027 159.867 718.332 153.374L717.668 152.626C710.573 158.933 700.986 161.813 691.606 163.609L691.794 164.591ZM667.796 164.289C675.86 166.003 683.927 166.104 691.794 164.591L691.606 163.609C683.873 165.096 675.941 164.997 668.004 163.311L667.796 164.289ZM647.926 151.36C649.184 155.082 652.436 157.936 656.18 160.036C659.936 162.142 664.261 163.532 667.795 164.289L668.005 163.311C664.539 162.568 660.315 161.208 656.67 159.164C653.014 157.114 650.016 154.418 648.874 151.04L647.926 151.36ZM650.27 136.929C649.515 139.014 648.595 141.553 648.03 144.084C647.466 146.604 647.236 149.191 647.924 151.352L648.877 151.048C648.271 149.144 648.454 146.77 649.006 144.302C649.555 141.843 650.452 139.364 651.21 137.269L650.27 136.929ZM650.629 135.932C650.515 136.251 650.395 136.583 650.27 136.929L651.21 137.269C651.335 136.924 651.456 136.59 651.571 136.268L650.629 135.932ZM663.436 102.115C658.734 113.919 654.431 125.225 650.629 135.933L651.571 136.267C655.369 125.575 659.666 114.281 664.365 102.485L663.436 102.115ZM663.371 101.995C663.44 101.985 663.496 101.981 663.54 101.981C663.585 101.981 663.614 101.985 663.629 101.988C663.645 101.991 663.642 101.993 663.628 101.985C663.613 101.976 663.591 101.959 663.571 101.932C663.55 101.904 663.541 101.877 663.537 101.859C663.534 101.842 663.536 101.838 663.534 101.852C663.533 101.865 663.528 101.891 663.515 101.931C663.502 101.97 663.482 102.018 663.453 102.076L664.347 102.524C664.437 102.344 664.507 102.154 664.528 101.964C664.55 101.769 664.524 101.542 664.379 101.343C664.235 101.145 664.027 101.049 663.833 101.009C663.643 100.969 663.436 100.975 663.229 101.005L663.371 101.995ZM655.104 97.5591C655.237 98.6843 655.597 99.5762 656.145 100.264C656.692 100.952 657.403 101.407 658.191 101.695C659.746 102.263 661.647 102.198 663.358 101.997L663.242 101.003C661.553 101.202 659.854 101.237 658.534 100.755C657.885 100.518 657.339 100.16 656.927 99.6419C656.515 99.1238 656.213 98.4157 656.097 97.4409L655.104 97.5591ZM665.91 91.411C663.896 91.4104 661.078 91.4049 658.842 92.1326C657.716 92.4989 656.687 93.0658 655.984 93.9579C655.271 94.8632 654.936 96.0484 655.103 97.5552L656.097 97.4448C655.954 96.1556 656.244 95.244 656.769 94.5769C657.306 93.8967 658.131 93.4156 659.151 93.0835C661.208 92.4144 663.856 92.4104 665.91 92.411L665.91 91.411ZM667.286 91.4002C666.89 91.4112 666.427 91.4111 665.91 91.411L665.91 92.411C666.423 92.4111 666.901 92.4113 667.314 92.3998L667.286 91.4002ZM667.626 91.1419C667.618 91.1648 667.574 91.2383 667.475 91.3125C667.431 91.3457 667.387 91.37 667.35 91.3848C667.312 91.4004 667.295 91.4 667.3 91.4V92.4C667.598 92.4 667.877 92.2613 668.075 92.1125C668.276 91.9617 668.482 91.7352 668.574 91.4581L667.626 91.1419ZM677.839 66.7072L667.639 91.1072L668.561 91.4928L678.761 67.0928L677.839 66.7072ZM677.8 66.7V66.9H678.8V66.7H677.8ZM677.7 66.6C677.692 66.6 677.695 66.5981 677.709 66.6046C677.723 66.6112 677.741 66.6232 677.759 66.641C677.777 66.6589 677.789 66.6771 677.795 66.6911C677.802 66.7051 677.8 66.7082 677.8 66.7H678.8C678.8 66.3874 678.649 66.1166 678.466 65.934C678.283 65.7513 678.013 65.6 677.7 65.6V66.6ZM656.415 66.6998C663.205 66.5001 670.297 66.5 677.693 66.5999L677.707 65.6C670.303 65.5 663.195 65.4999 656.385 65.7002L656.415 66.6998ZM650.443 81.5674C649.425 79.631 648.572 77.7381 648.048 75.9848C647.522 74.2266 647.339 72.6497 647.615 71.3271C647.886 70.0285 648.605 68.9415 649.972 68.1407C651.359 67.3278 653.434 66.7983 656.417 66.6997L656.384 65.7003C653.317 65.8017 651.054 66.3472 649.466 67.278C647.857 68.221 646.965 69.5465 646.636 71.1228C646.312 72.6753 646.541 74.4359 647.09 76.2714C647.64 78.1119 648.525 80.069 649.557 82.0326L650.443 81.5674ZM648.887 88.0096C649.974 87.2483 650.68 86.2491 650.949 85.1155C651.218 83.9839 651.041 82.7641 650.447 81.5764L649.553 82.0236C650.059 83.0359 650.182 84.0161 649.976 84.8845C649.77 85.7509 649.226 86.5517 648.313 87.1904L648.887 88.0096ZM639.962 84.8404C640.843 86.4479 642.112 87.8696 643.654 88.5792C645.228 89.3037 647.038 89.2602 648.88 88.0141L648.32 87.1859C646.762 88.2398 645.322 88.2462 644.072 87.6708C642.789 87.0804 641.657 85.8521 640.838 84.3596L639.962 84.8404ZM643.698 58.1425C640.675 59.475 638.597 61.2401 637.278 63.3078C635.961 65.3743 635.425 67.7069 635.425 70.1375C635.425 74.9768 637.549 80.2668 639.958 84.8333L640.842 84.3667C638.451 79.8331 636.425 74.7232 636.425 70.1375C636.425 67.8556 636.927 65.7194 638.122 63.8454C639.316 61.9724 641.225 60.325 644.102 59.0575L643.698 58.1425ZM652.382 56.0003C649.512 56.1028 646.546 56.82 643.69 58.1465L644.111 59.0535C646.854 57.78 649.688 57.0972 652.418 56.9997L652.382 56.0003ZM680.009 55.8001C669.306 55.6 660.092 55.5997 652.374 56.0007L652.426 56.9993C660.108 56.6003 669.294 56.6 679.991 56.7999L680.009 55.8001ZM688.993 55.837C685.943 55.8614 682.951 55.8853 680.015 55.8002L679.986 56.7998C682.943 56.8855 685.954 56.8614 689.001 56.837L688.993 55.837ZM701.527 56.0007C697.27 55.7706 693.08 55.8043 688.993 55.837L689.001 56.837C693.093 56.8042 697.252 56.7711 701.473 56.9993L701.527 56.0007ZM739.928 58.0008C727.428 57.3008 714.626 56.6006 701.523 56.0005L701.477 56.9995C714.574 57.5994 727.372 58.2992 739.872 58.9992L739.928 58.0008ZM740.017 68.4997C741.651 68.4453 742.899 67.7925 743.728 66.8099C744.549 65.8363 744.933 64.5703 744.912 63.3168C744.872 60.8116 743.194 58.2222 739.934 58.0011L739.866 58.9989C742.506 59.1778 743.878 61.2384 743.913 63.3331C743.93 64.3797 743.608 65.4011 742.963 66.1651C742.326 66.92 741.35 67.4547 739.983 67.5003L740.017 68.4997ZM730.271 68.3991C733.689 68.6002 736.905 68.6001 740.016 68.4997L739.984 67.5003C736.895 67.5999 733.711 67.5998 730.329 67.4009L730.271 68.3991ZM690.378 66.3995C704.176 66.9994 717.473 67.6993 730.273 68.3993L730.327 67.4007C717.527 66.7007 704.225 66.0006 690.422 65.4005L690.378 66.3995ZM689.068 67.2756C689.188 66.9551 689.355 66.7477 689.552 66.616C689.752 66.483 690.024 66.4 690.4 66.4V65.4C689.876 65.4 689.398 65.517 688.998 65.784C688.595 66.0523 688.312 66.4449 688.132 66.9244L689.068 67.2756ZM679.264 91.587L689.064 67.287L688.136 66.913L678.336 91.213L679.264 91.587ZM679.3 91.5V91.4H678.3V91.5H679.3ZM659.947 151.631C666.374 155.406 674.699 156 682.5 156V155C674.701 155 666.626 154.394 660.453 150.769L659.947 151.631ZM657.314 145.984C657.041 147.127 657.117 148.195 657.573 149.163C658.025 150.124 658.83 150.94 659.937 151.625L660.463 150.775C659.47 150.16 658.825 149.476 658.477 148.737C658.133 148.005 658.059 147.173 658.286 146.216L657.314 145.984ZM664.236 126.314C661.232 133.824 658.926 140.341 657.319 145.963L658.281 146.237C659.875 140.659 662.168 134.176 665.164 126.686L664.236 126.314ZM670.697 109.9C668.593 115.307 666.46 120.788 664.236 126.313L665.164 126.687C667.39 121.155 669.525 115.669 671.629 110.263L670.697 109.9ZM673.735 102.117C672.724 104.692 671.714 107.287 670.697 109.9L671.629 110.263C672.646 107.65 673.656 105.056 674.665 102.483L673.735 102.117ZM676.1 100.6C675.152 100.6 674.124 101.078 673.732 102.124L674.668 102.476C674.876 101.922 675.448 101.6 676.1 101.6V100.6ZM689.468 101.805C685.053 101.203 680.637 100.801 676.122 100.6L676.078 101.6C680.562 101.799 684.947 102.197 689.332 102.795L689.468 101.805ZM717.302 117.702C710.614 108.685 701.289 103.421 689.468 101.805L689.332 102.795C700.911 104.379 709.986 109.515 716.498 118.298L717.302 117.702ZM708.97 147.921C713.948 144.721 718.079 139.937 719.947 134.564C721.822 129.172 721.409 123.196 717.3 117.701L716.5 118.299C720.391 123.504 720.778 129.128 719.003 134.236C717.221 139.363 713.252 143.979 708.43 147.079L708.97 147.921ZM695.849 153.977C700.389 152.565 704.829 150.547 708.968 147.922L708.432 147.078C704.371 149.653 700.011 151.635 695.551 153.023L695.849 153.977ZM682.5 156C686.946 156 691.398 155.394 695.852 153.976L695.548 153.024C691.202 154.406 686.854 155 682.5 155V156Z" fill="black"/>
<path fill-rule="evenodd" clip-rule="evenodd" d="M394.4 140C394.5 139 394.2 138.9 393.5 139.6C389.5 143.8 385.1 147.8 380.6 150.5C368.7 157.5 360.7 150.4 360 138.1C359.5 130.4 360.3 123.3 362.2 117C365.9 104.8 372.3 93.7 381.5 83.7C384.6 80.3 388.4 78.9 392.7 77.5C400.7 74.8 406.7 76.9 410.8 84C412 86.1 412.8 88.5 413.2 91.3C414.6 100.9 413.4 110.6 409.5 119.6C409.284 120.084 409.068 120.567 408.853 121.048C406.176 127.027 403.588 132.807 402.2 139.1C401.9 140.4 401.9 141.6 402.3 142.7C402.3 142.8 402.4 143 402.5 143.1C402.9 143.6 403.7 143.6 404.2 143.2C406.8 141 409.2 138 411.6 134.3C416.9 125.8 421.5 116.8 425.3 107.1C428.2 99.8 436.8 103.7 434.5 110C429.7 123.1 423.6 134.4 416 144C412.7 148.2 408.7 150.9 404 152.1C396.1 154.1 394.2 146 394.4 140ZM390.4 132.5C397.8 122.9 403.5 111.5 405 99.4C405.4 96 404.8 89.4 401.5 87.1C398.5 85 393.4 87 390.9 88.9C388.5 90.7 386.4 92.8 384.5 95.2C374.3 108 368.3 123.2 370 139.8C370.5 145.2 374.7 145.8 378.5 143.4C383 140.5 387 136.9 390.4 132.5Z" fill="#FF0000"/>
<path fill-rule="evenodd" clip-rule="evenodd" d="M838.6 147C836.7 139.6 836 132.2 836.4 124.8C836.4 124.3 836.2 124.1 835.9 124.3C833.1 124.8 830.2 125.6 827.2 126.9C826 127.4 825.3 128.2 825 129.4C823.3 136.6 821.8 143.8 820.4 151C819.8 154 818.1 155.2 815.1 154.6H814.9C812 154 810.7 152.3 811.2 149.3C813.1 137.8 815.6 126.9 818.7 116.5C819.328 114.406 819.951 112.312 820.573 110.219C822.626 103.317 824.675 96.4291 826.9 89.6C828.6 84.1 836.1 84.4 836.4 90.1C836.4 91 836.1 92.5 835.5 94.5C833.4 101.4 831.3 108.2 829.2 114.9C828.9 115.6 829.2 115.8 829.9 115.6L837 113.3C837.7 113.1 838.3 112.5 838.5 111.8C841.6 102.9 846 95.3 853.2 89C860.6 82.5 870.4 79.8 879.4 83.7C890.7 88.6 892.1 104.7 890.5 115.8C888.2 131.9 881.9 148.4 869.6 158.6C867.2 160.6 864 161.9 860 162.5C856.8 162.9 853.8 162.6 851.1 161.6C844.6 159.2 840.4 154.3 838.6 147ZM881.1 103.5C881.8 112.3 880.4 121.5 876.8 131C874.5 136.9 871.2 143.5 866.9 147.9C863.3 151.6 857.5 154.3 852.6 151.7C851.3 150.9 850.2 149.6 849.6 147.8C846.6 139.4 845.5 131.4 846.2 123.9C847.4 110.8 854.1 97.7 866.5 92.7C875.3 89.1 880.4 95.4 881.1 103.5Z" fill="#FF0000"/>
<path d="M61.6 29.8L991.6 29.7C992.6 29.7 993.4 30.5 993.4 31.5C993.3 115.1 993.4 198.8 993.5 282.4C993.5 283.5 993.4 284.6 993.3 285.7C993.2 286.1 993 286.3 992.6 286.3C991.1 286.4 989.7 286.2 988.4 285.6C977 280.5 963.7 274.9 948.3 268.7C943.8 266.9 939.4 265.1 935 263.2C930 261.1 925 259.2 920 257.5C918 256.8 916 256.1 914.1 255.4C893.5 247.9 873.1 241 852.6 234.7C848 233.3 843.4 231.9 838.6 230.6C833.9 229.3 829.2 228 824.6 226.7C807.6 221.9 790.6 217.7 773.5 214L768.6 212.8L740.1 207C725.8 204.3 714 202.2 704.9 200.8C683.8 197.5 663.1 194.9 642.9 192.9C568 185.4 493.1 185.1 418.2 191.8C418.1 191.8 418.1 191.8 418 191.9C418 191.9 418 191.9 418 192C418.1 192 418.1 192.1 418 192.1C400.8 193.6 383.7 195.6 366.8 198L357.2 199.4L340.3 202L329 203.9C238 219.8 150.3 246.6 66 284.1C63.8 285.1 61.5 285.9 59.1 286.6C58.3 286.8 57.4 286.4 57.1 285.5C57.1 285.4 57 285.2 57 285.1C57 283.9 56.9 282.8 56.9 281.6C56.7 190.1 56.7 107.6 56.9 34.2C56.9 33.1 56.9 31.9 56.9 30.7C56.9 30.3 57.3 29.9 57.7 29.9L61.6 29.8ZM618.5 186.8C727.5 195.6 833.1 219.7 935.1 259.3C947.5 264.1 960.1 269.1 972.5 274.5C978.1 276.9 983.5 279.3 988.9 281.6C989.4 281.8 989.6 281.6 989.6 281.1V34.1C989.6 33.8 989.4 33.6 989.1 33.6H61.4C60.9 33.6 60.6 33.8 60.6 34.4V281.4C60.6 281.6 60.8 281.8 61.1 281.8C61.2 281.8 61.2 281.8 61.3 281.8C189.3 224.6 322.9 192.3 462.1 184.8C514.7 182 566.9 182.7 618.5 186.8Z" fill="#FF0000"/>
<path fill-rule="evenodd" clip-rule="evenodd" d="M574.792 79.2541C585.792 81.9541 591.792 89.3541 592.992 101.354C593.992 111.154 591.892 119.854 588.392 129.054C585.492 136.454 582.192 142.654 578.292 147.654C569.492 158.954 555.692 164.154 543.092 154.354C540.692 152.554 539.592 151.554 538.992 149.554C536.992 146.954 535.492 139.954 535.192 135.454C534.092 117.554 537.492 98.8541 551.492 87.0541C555.192 84.0541 560.092 80.9541 564.992 80.2541C565.785 80.1261 566.618 79.9458 567.468 79.7617C569.939 79.2263 572.559 78.6588 574.792 79.2541ZM575.3 89.9C587.9 95.8 583.9 113.7 580 123.7C576.2 133.4 571.7 142.2 563.8 148.4C561.1 150.6 558 151.2 554.7 150.3C551.3 149.3 548.9 147.5 547.5 144.8C545.8 141.6 544.9 138.2 544.7 134.8C544.2 126.9 544.8 119.1 546.3 111.5C548.471 103.943 549.995 102.332 552.432 99.7568C553.026 99.1287 553.675 98.4432 554.4 97.6C557.8 93.6 562.2 90.9 567.4 89.5C570.4 88.7 573 88.8 575.3 89.9Z" fill="#FF0000"/>
</g>
<defs>
<clipPath id="clip0_1_2">
<rect width="1049" height="327" fill="white"/>
</clipPath>
</defs>
</svg>
