<svg width="1049" height="513" viewBox="0 0 1049 513" fill="none" xmlns="http://www.w3.org/2000/svg">
<rect width="1049" height="513" fill="#1E1E1E"/>
<g clip-path="url(#clip0_0_1)">
<path d="M164.6 288.8C166.3 284.1 168.1 278.6 170.2 272.3C172 266.6 163.4 264.2 161.2 270.2C148.8 304.3 136.1 341.1 123.3 376.5C122.2 379.6 123.1 382 126.1 383.6C141.5 392 160.7 392 177.4 385.7C194.8 379.1 207.4 367.3 215.1 350.2C223.8 330.8 224.2 309.6 218.5 288.9C213.7 271.6 203.6 258.3 187 252.4C175.9 248.5 163.9 247.8 152.3 249.7C129.6 253.4 106.6 264.9 91.3 282.7C87.9 286.7 85 291.4 83.1 296.1C74.7 317.3 88.9 332.1 107.4 339.6C113.2 341.9 117.2 334 111.3 331C109 329.8 106.6 328.6 104.3 327.4C95 322.4 87.8 313.9 91 302.7C93.7 293.5 100.6 285.7 108.5 279.4C123.5 267.4 143.4 259.1 162.8 258.3C181.2 257.6 197.8 265 206 281.8C208.7 287.3 210.6 293.7 211.7 301C214.3 317.8 211.9 334 204.5 349.5C200.3 358.3 194 365.5 185.7 371C170.9 380.8 150.9 384.6 134.6 376.7C134.1 376.5 133.9 376 134.1 375.5C143.6 347.6 153.9 318.6 164.6 288.8Z" fill="#FF0000"/>
<path d="M309 299.5C312.1 290.5 315.8 281.2 320 271.6C320.8 269.7 321.4 267.3 320.3 265.4C318.2 261.3 312.9 263.1 311.3 266.7C304.5 283 298.3 298.9 294 315.8C292.5 321.5 291.6 327.2 291.1 333C290.5 339.7 299.5 340.4 300.6 333.7C301.8 326 303.3 318.6 305.2 311.5C305.3 311.1 305.7 310.7 306.1 310.6L326.2 306.8C326.5 306.7 326.7 306.9 326.8 307.2C326.8 307.3 326.8 307.3 326.8 307.4C325.7 313.2 325.1 318.7 325 324C324.8 331.1 327.9 343.2 338 339.9C342.4 338.5 346.5 333.7 348.9 330C352.6 324.3 355.9 317.8 358.8 310.4C360 307.4 360.6 304.6 360.8 302.1C361.1 295.8 352.8 296 351.4 301.2C349.4 308.8 346.4 316.3 342.5 322.7C340.8 325.6 338.6 328 336.2 330.1C336 330.3 335.7 330.2 335.6 330L335.5 329.9C334.9 328.3 334.7 326.6 334.8 324.9C335.3 314.2 337 303.9 340.2 294C341.9 288.6 344.8 282.6 348.8 275.9C352.9 269.1 344.7 264.2 340.9 270C336 277.6 332.1 286.2 329.4 295.8C329.3 296.3 328.9 296.6 328.4 296.7L309.7 300.2C309 300.2 308.8 300 309 299.5Z" fill="#FF0000"/>
<path d="M269.8 326.3C269.1 327 268.8 326.9 268.9 325.9C269.2 322 270.2 318.2 271.7 314.7C274.2 309 276.6 303.3 279.1 297.5C280.8 293.5 281.9 289.9 282.4 286.5C283.2 281.1 275.1 279 273.2 283.4C267.5 296.8 262.3 307.6 255.7 318.2C252.8 322.9 247.9 330.1 242.5 330.7C239.1 331 238.1 326.9 238.1 324.3C238 316.4 240.8 308.9 244.3 301.6C247.8 294.3 252.8 286 259.3 276.7C260.6 274.9 262.1 271.5 260.7 269.3C256.7 263.6 251.6 270.6 249.5 273.7C238.5 289.5 222.7 315.5 231 335C236.9 348.9 253.4 335.1 258.6 329C258.8 328.8 259.1 328.8 259.3 328.9C259.4 329 259.5 329.1 259.5 329.2C260.2 332.7 261.4 336.9 264.4 338.9C267.1 340.7 271.3 338.7 273.4 336.7C276.6 333.7 279.4 330.2 281.8 326.4C286.8 318.3 290.9 310.5 294 302.9C294.6 301.5 294.8 300.1 294.8 298.6C294.7 296.1 292 294.3 289.7 294.6C287.8 294.8 286.2 296.2 285.5 298C281.9 307.4 277.3 315.9 271.7 323.8C271.1 324.7 270.4 325.5 269.8 326.3Z" fill="#FF0000"/>
<path d="M936.1 320.3C935.9 320.2 935.8 320 935.9 319.8C935.9 319.7 936 319.6 936 319.6C940 316.7 943.6 313.4 946.6 309.6C952.4 302.3 953.7 292.6 949.1 284.2C943.3 273.5 929.8 266.9 918 271.8C910.5 274.9 905.9 279.6 900.7 285.8C899.7 287 898.9 288.4 898.4 290C896.3 295.9 904 299.4 907.1 294C913.2 283.3 926.3 274.4 937.5 284.9C939.4 286.7 940.7 288.7 941.5 291C946.2 305.3 925.5 314.8 915.7 319.7C913.8 320.6 913 322.2 913.3 324.4C913.7 327.8 916.1 329.2 919.3 328.8C935.9 326.7 950.3 335 952.8 352.5C954.9 367.6 950.9 380.6 940.7 391.4C928.7 404.2 910.4 404.6 895.5 396C889.9 392.8 886.2 387.8 884.2 381C881.5 371.9 883.6 358.5 892 352.2C895.4 349.7 898.6 349.3 901.7 351C904.1 352.3 906.3 354.3 908.3 356.8C910.3 359.4 912.6 359.9 915.1 357.9C917.4 356.1 917.6 353.9 915.8 351.2C911.5 344.9 903.9 339.1 896.2 340.2C886.5 341.5 879.4 349.5 876.2 358.3C871.7 370.5 872.7 381.9 879.2 392.6C887.2 405.8 903 411.6 918 411.4C930.9 411.3 943 403.6 951.4 394.2C954.5 390.8 956.7 387.4 958 384.1C960.4 378.2 961.9 371.5 962.7 364C963.3 357.9 962.9 352 961.5 346.4C958.1 333.2 949.7 324.5 936.1 320.3Z" fill="#FF0000"/>
<path d="M502.7 292.8C503.4 291.7 503.6 291.7 503.3 293C500.8 303.9 499 312.5 497.9 318.9C497.3 322.4 497.2 326.2 497.5 330.3C497.8 334 499.2 336.7 501.7 338.4C507.2 342.2 513.7 336.5 517.3 332C524.1 323.4 529.6 313 533.8 300.8C535 297.3 535.3 292.4 530.7 291.3C527.6 290.5 525.2 293.4 524.8 296.3C524.6 297.7 524.2 299.1 523.7 300.5C519.8 310.8 514.8 319.8 508.4 327.5C508.1 327.9 507.8 328.1 507.4 328.4C506.8 328.7 506.5 328.6 506.6 327.9C507.5 316.3 511 304.7 512.9 293.5C513.7 289 514.4 281.5 511.3 277.9C506.5 272.3 500.4 278.3 497.9 282.7C494.7 288.2 490.9 294.7 486.4 302.1C484.9 304.7 483.4 307.5 481.9 310.6C481.2 312 481 312 481.3 310.4C482.4 304.7 483.5 299 484.4 293.3C485.3 288.2 485.6 280.1 482.3 275.8C476 267.4 467.5 275.7 463.9 281.4C460.6 286.6 457.8 291.5 455.5 296.2C451.6 304.1 447.5 312.3 443.4 320.8C441.6 324.5 439.6 328 437.2 331.5C436.9 331.9 436.4 332 436 331.7C435.9 331.6 435.8 331.5 435.7 331.4C433.9 328.2 435.3 324.2 436.7 321C438.3 317.2 440.3 313 442.6 308.4C443.9 305.8 443.3 303.7 440.8 302.2C440.7 302.2 440.7 302.1 440.6 302.1C438.1 300.6 436 301.1 434.5 303.6C429.3 312.1 423.5 325.5 426.8 334.7C428.8 340.2 435 343.6 440.3 339.8C445.3 336.3 449.3 329.9 452.1 324.5C456.5 316 460.8 307.3 465.1 298.4C467.7 293 470.5 287.8 473.6 282.7C473.9 282.3 474.3 282.1 474.8 282.2C475.2 282.3 475.5 282.6 475.5 283C475.3 288.5 474.6 293.8 473.5 298.9C472.1 305.5 470.9 312.2 469.9 318.9C469.4 322.3 469.3 325.4 469.7 328.4C470.2 332.2 473.8 334.1 477.2 332.4C478.6 331.6 479.9 330.6 480.9 329.3C484 325.2 486.9 320.7 489.5 315.9C494.2 307.2 498.6 299.6 502.7 292.8Z" fill="#FF0000"/>
<path d="M783.3 286.9C784.8 293.7 783.1 302.2 781.2 308.9C779 316.8 777.6 323.6 776.9 329.5C776.2 335.3 777.5 340 780.8 343.5C792.8 356.6 808.7 315.7 811.3 309.1C813.9 302.5 805.3 298.4 802.9 304.5C799.8 312.4 796.8 319.8 793.8 326.8C792.3 330.3 790.6 333.5 788.6 336.5C788.4 336.9 787.9 337 787.5 336.7C787.4 336.6 787.3 336.5 787.2 336.3C786.4 334.5 786.1 332.6 786.3 330.7C787.6 316.7 794.1 303.9 793.4 289.4C793.2 285.9 791.2 273.3 785.6 275.2C780.3 277 776.4 281.5 773.2 286C766.4 295.8 760.9 306 756 316.8C754.5 320.1 752.9 323.1 751.3 325.7C749.3 328.8 746.1 333.5 742.8 335C742.4 335.2 741.9 335 741.7 334.6C741.7 334.5 741.6 334.4 741.6 334.3C741.6 332.7 741.7 331.2 742.1 329.8C743.2 325.6 744.6 321.4 746.4 317.2C747.6 314.3 747.1 311.5 744.1 310.3C741.3 309.3 739.4 310 738.2 312.5C735 319.3 731 331.7 733.6 339C736.8 347.9 745.5 348.1 751.5 342.1C756.3 337.3 760.1 331.5 763.2 324.7C769.3 311.1 774.9 299.6 780.1 290.2C780.8 288.8 781.7 287.6 782.7 286.5C782.9 286.3 783.1 286.3 783.3 286.5C783.2 286.7 783.3 286.8 783.3 286.9Z" fill="#FF0000"/>
<path fill-rule="evenodd" clip-rule="evenodd" d="M678.8 277.5C678.8 277.6 678.9 277.8 679.1 277.8L679.173 277.803C681.351 277.902 683.625 278.006 685.8 278.5C687.001 278.66 688.186 278.692 689.374 278.724C691.154 278.772 692.941 278.82 694.8 279.3C705.3 282.2 715.5 287 722.1 295.7C732.4 309.4 730.8 327.6 718 339C710.8 345.4 701.1 348.3 691.7 350.1C683.9 351.6 675.9 351.5 667.9 349.8C660.9 348.3 650.8 344.3 648.4 337.2C647.107 333.135 649.227 327.279 650.74 323.099C650.865 322.754 650.986 322.42 651.1 322.1C654.9 311.4 659.2 300.1 663.9 288.3C664.2 287.7 664 287.4 663.3 287.5C659.9 287.9 656.1 287.7 655.6 283.5C654.979 277.908 661.842 277.91 665.91 277.911C666.425 277.911 666.895 277.911 667.3 277.9C667.6 277.9 668 277.6 668.1 277.3L678.3 252.9V252.7C678.3 252.4 678 252.1 677.7 252.1C670.3 252 663.2 252 656.4 252.2C644.3 252.6 645.9 260 650 267.8C651.1 270 650.6 272.2 648.6 273.6C645.2 275.9 642.1 273.7 640.4 270.6C635.6 261.5 632.1 249.8 643.9 244.6C646.7 243.3 649.6 242.6 652.4 242.5C660.1 242.1 669.3 242.1 680 242.3C682.947 242.385 685.949 242.361 688.997 242.337C693.087 242.304 697.261 242.271 701.5 242.5C714.6 243.1 727.4 243.8 739.9 244.5C745.8 244.9 746 253.8 740 254C736.9 254.1 733.7 254.1 730.3 253.9C717.5 253.2 704.2 252.5 690.4 251.9C689.5 251.9 688.9 252.3 688.6 253.1L678.8 277.4V277.5ZM682.5 341.5C674.7 341.5 666.5 340.9 660.2 337.2C658.1 335.9 657.3 334.2 657.8 332.1C659.4 326.5 661.7 320 664.7 312.5C666.925 306.971 669.059 301.488 671.163 296.081C672.18 293.469 673.19 290.874 674.2 288.3C674.5 287.5 675.3 287.1 676.1 287.1C680.6 287.3 685 287.7 689.4 288.3C701.1 289.9 710.3 295.1 716.9 304C724.9 314.7 718.5 327.2 708.7 333.5C704.6 336.1 700.2 338.1 695.7 339.5C691.3 340.9 686.9 341.5 682.5 341.5Z" fill="#FF0000"/>
<path d="M679.1 277.8L679.123 277.301L679.111 277.3H679.1V277.8ZM679.173 277.803L679.151 278.303L679.151 278.303L679.173 277.803ZM685.8 278.5L685.689 278.988L685.711 278.993L685.734 278.996L685.8 278.5ZM689.374 278.724L689.387 278.224L689.387 278.224L689.374 278.724ZM694.8 279.3L694.933 278.818L694.925 278.816L694.8 279.3ZM722.1 295.7L722.5 295.4L722.498 295.398L722.1 295.7ZM718 339L718.332 339.374L718.333 339.373L718 339ZM691.7 350.1L691.606 349.609L691.606 349.609L691.7 350.1ZM667.9 349.8L667.795 350.289L667.796 350.289L667.9 349.8ZM648.4 337.2L647.924 337.352L647.926 337.36L648.4 337.2ZM650.74 323.099L650.27 322.929L650.27 322.929L650.74 323.099ZM651.1 322.1L651.571 322.268L651.571 322.267L651.1 322.1ZM663.9 288.3L663.453 288.076L663.443 288.095L663.436 288.115L663.9 288.3ZM663.3 287.5L663.358 287.997L663.371 287.995L663.3 287.5ZM655.6 283.5L655.103 283.555L655.104 283.559L655.6 283.5ZM665.91 277.911L665.91 277.411L665.91 277.411L665.91 277.911ZM667.3 277.9V277.4L667.286 277.4L667.3 277.9ZM668.1 277.3L667.639 277.107L667.632 277.124L667.626 277.142L668.1 277.3ZM678.3 252.9L678.761 253.093L678.8 253V252.9H678.3ZM677.7 252.1L677.693 252.6H677.7V252.1ZM656.4 252.2L656.385 251.7L656.384 251.7L656.4 252.2ZM650 267.8L650.447 267.576L650.443 267.567L650 267.8ZM648.6 273.6L648.88 274.014L648.887 274.01L648.6 273.6ZM640.4 270.6L639.958 270.833L639.962 270.84L640.4 270.6ZM643.9 244.6L644.102 245.058L644.111 245.053L643.9 244.6ZM652.4 242.5L652.418 243L652.426 242.999L652.4 242.5ZM680 242.3L680.015 241.8L680.009 241.8L680 242.3ZM688.997 242.337L689.001 242.837L688.997 242.337ZM701.5 242.5L701.473 242.999L701.477 242.999L701.5 242.5ZM739.9 244.5L739.934 244.001L739.928 244.001L739.9 244.5ZM740 254L740.016 254.5L740.017 254.5L740 254ZM730.3 253.9L730.329 253.401L730.327 253.401L730.3 253.9ZM690.4 251.9L690.422 251.4L690.411 251.4H690.4V251.9ZM688.6 253.1L689.064 253.287L689.068 253.276L688.6 253.1ZM678.8 277.4L678.336 277.213L678.3 277.303V277.4H678.8ZM660.2 337.2L659.937 337.625L659.947 337.631L660.2 337.2ZM657.8 332.1L657.319 331.963L657.316 331.973L657.314 331.984L657.8 332.1ZM664.7 312.5L664.236 312.313L664.236 312.314L664.7 312.5ZM671.163 296.081L671.629 296.263L671.629 296.263L671.163 296.081ZM674.2 288.3L674.666 288.483L674.668 288.476L674.2 288.3ZM676.1 287.1L676.122 286.6L676.111 286.6H676.1V287.1ZM689.4 288.3L689.468 287.805L689.468 287.805L689.4 288.3ZM716.9 304L716.498 304.298L716.5 304.299L716.9 304ZM708.7 333.5L708.968 333.922L708.97 333.921L708.7 333.5ZM695.7 339.5L695.551 339.023L695.548 339.024L695.7 339.5ZM679.1 277.3C679.186 277.3 679.244 277.348 679.265 277.375C679.275 277.387 679.281 277.399 679.286 277.411C679.289 277.42 679.3 277.45 679.3 277.5H678.3C678.3 277.682 678.376 277.864 678.485 278C678.606 278.152 678.814 278.3 679.1 278.3V277.3ZM679.196 277.304L679.123 277.301L679.077 278.299L679.151 278.303L679.196 277.304ZM685.911 278.012C683.684 277.506 681.366 277.402 679.196 277.304L679.151 278.303C681.336 278.402 683.565 278.505 685.689 278.988L685.911 278.012ZM689.387 278.224C688.195 278.192 687.036 278.16 685.866 278.004L685.734 278.996C686.965 279.16 688.176 279.192 689.36 279.224L689.387 278.224ZM694.925 278.816C693.003 278.32 691.16 278.272 689.387 278.224L689.36 279.224C691.147 279.272 692.879 279.321 694.675 279.784L694.925 278.816ZM722.498 295.398C715.802 286.57 705.477 281.73 694.933 278.818L694.667 279.782C705.123 282.67 715.198 287.43 721.702 296.002L722.498 295.398ZM718.333 339.373C731.331 327.796 732.952 309.302 722.5 295.4L721.7 296C731.848 309.498 730.269 327.404 717.667 338.627L718.333 339.373ZM691.794 350.591C701.214 348.787 711.027 345.867 718.332 339.374L717.668 338.626C710.573 344.933 700.986 347.813 691.606 349.609L691.794 350.591ZM667.796 350.289C675.86 352.003 683.927 352.104 691.794 350.591L691.606 349.609C683.873 351.096 675.941 350.997 668.004 349.311L667.796 350.289ZM647.926 337.36C649.184 341.082 652.436 343.936 656.18 346.036C659.936 348.142 664.261 349.532 667.795 350.289L668.005 349.311C664.539 348.568 660.315 347.208 656.67 345.164C653.014 343.114 650.016 340.418 648.874 337.04L647.926 337.36ZM650.27 322.929C649.515 325.014 648.595 327.553 648.03 330.084C647.466 332.604 647.236 335.191 647.924 337.352L648.877 337.048C648.271 335.144 648.454 332.77 649.006 330.302C649.555 327.843 650.452 325.364 651.21 323.269L650.27 322.929ZM650.629 321.932C650.515 322.251 650.395 322.583 650.27 322.929L651.21 323.269C651.335 322.924 651.456 322.59 651.571 322.268L650.629 321.932ZM663.436 288.115C658.734 299.919 654.431 311.225 650.629 321.933L651.571 322.267C655.369 311.575 659.666 300.281 664.365 288.485L663.436 288.115ZM663.371 287.995C663.44 287.985 663.496 287.981 663.54 287.981C663.585 287.981 663.614 287.985 663.629 287.988C663.645 287.991 663.642 287.993 663.628 287.985C663.613 287.976 663.591 287.959 663.571 287.932C663.55 287.904 663.541 287.877 663.537 287.859C663.534 287.842 663.536 287.838 663.534 287.852C663.533 287.865 663.528 287.891 663.515 287.931C663.502 287.97 663.482 288.018 663.453 288.076L664.347 288.524C664.437 288.344 664.507 288.154 664.528 287.964C664.55 287.769 664.524 287.542 664.379 287.343C664.235 287.145 664.027 287.049 663.833 287.009C663.643 286.969 663.436 286.975 663.229 287.005L663.371 287.995ZM655.104 283.559C655.237 284.684 655.597 285.576 656.145 286.264C656.692 286.952 657.403 287.407 658.191 287.695C659.746 288.263 661.647 288.198 663.358 287.997L663.242 287.003C661.553 287.202 659.854 287.237 658.534 286.755C657.885 286.518 657.339 286.16 656.927 285.642C656.515 285.124 656.213 284.416 656.097 283.441L655.104 283.559ZM665.91 277.411C663.896 277.41 661.078 277.405 658.842 278.133C657.716 278.499 656.687 279.066 655.984 279.958C655.271 280.863 654.936 282.048 655.103 283.555L656.097 283.445C655.954 282.156 656.244 281.244 656.769 280.577C657.306 279.897 658.131 279.416 659.151 279.084C661.208 278.414 663.856 278.41 665.91 278.411L665.91 277.411ZM667.286 277.4C666.89 277.411 666.427 277.411 665.91 277.411L665.91 278.411C666.423 278.411 666.901 278.411 667.314 278.4L667.286 277.4ZM667.626 277.142C667.618 277.165 667.574 277.238 667.475 277.313C667.431 277.346 667.387 277.37 667.35 277.385C667.312 277.4 667.295 277.4 667.3 277.4V278.4C667.598 278.4 667.877 278.261 668.075 278.112C668.276 277.962 668.482 277.735 668.574 277.458L667.626 277.142ZM677.839 252.707L667.639 277.107L668.561 277.493L678.761 253.093L677.839 252.707ZM677.8 252.7V252.9H678.8V252.7H677.8ZM677.7 252.6C677.692 252.6 677.695 252.598 677.709 252.605C677.723 252.611 677.741 252.623 677.759 252.641C677.777 252.659 677.789 252.677 677.795 252.691C677.802 252.705 677.8 252.708 677.8 252.7H678.8C678.8 252.387 678.649 252.117 678.466 251.934C678.283 251.751 678.013 251.6 677.7 251.6V252.6ZM656.415 252.7C663.205 252.5 670.297 252.5 677.693 252.6L677.707 251.6C670.303 251.5 663.195 251.5 656.385 251.7L656.415 252.7ZM650.443 267.567C649.425 265.631 648.572 263.738 648.048 261.985C647.522 260.227 647.339 258.65 647.615 257.327C647.886 256.028 648.605 254.942 649.972 254.141C651.359 253.328 653.434 252.798 656.417 252.7L656.384 251.7C653.317 251.802 651.054 252.347 649.466 253.278C647.857 254.221 646.965 255.547 646.636 257.123C646.312 258.675 646.541 260.436 647.09 262.271C647.64 264.112 648.525 266.069 649.557 268.033L650.443 267.567ZM648.887 274.01C649.974 273.248 650.68 272.249 650.949 271.116C651.218 269.984 651.041 268.764 650.447 267.576L649.553 268.024C650.059 269.036 650.182 270.016 649.976 270.884C649.77 271.751 649.226 272.552 648.313 273.19L648.887 274.01ZM639.962 270.84C640.843 272.448 642.112 273.87 643.654 274.579C645.228 275.304 647.038 275.26 648.88 274.014L648.32 273.186C646.762 274.24 645.322 274.246 644.072 273.671C642.789 273.08 641.657 271.852 640.838 270.36L639.962 270.84ZM643.698 244.142C640.675 245.475 638.597 247.24 637.278 249.308C635.961 251.374 635.425 253.707 635.425 256.137C635.425 260.977 637.549 266.267 639.958 270.833L640.842 270.367C638.451 265.833 636.425 260.723 636.425 256.137C636.425 253.856 636.927 251.719 638.122 249.845C639.316 247.972 641.225 246.325 644.102 245.058L643.698 244.142ZM652.382 242C649.512 242.103 646.546 242.82 643.69 244.146L644.111 245.053C646.854 243.78 649.688 243.097 652.418 243L652.382 242ZM680.009 241.8C669.306 241.6 660.092 241.6 652.374 242.001L652.426 242.999C660.108 242.6 669.294 242.6 679.991 242.8L680.009 241.8ZM688.993 241.837C685.943 241.861 682.951 241.885 680.015 241.8L679.986 242.8C682.943 242.886 685.954 242.861 689.001 242.837L688.993 241.837ZM701.527 242.001C697.27 241.771 693.08 241.804 688.993 241.837L689.001 242.837C693.093 242.804 697.252 242.771 701.473 242.999L701.527 242.001ZM739.928 244.001C727.428 243.301 714.626 242.601 701.523 242.001L701.477 242.999C714.574 243.599 727.372 244.299 739.872 244.999L739.928 244.001ZM740.017 254.5C741.651 254.445 742.899 253.792 743.728 252.81C744.549 251.836 744.933 250.57 744.912 249.317C744.872 246.812 743.194 244.222 739.934 244.001L739.866 244.999C742.506 245.178 743.878 247.238 743.913 249.333C743.93 250.38 743.608 251.401 742.963 252.165C742.326 252.92 741.35 253.455 739.983 253.5L740.017 254.5ZM730.271 254.399C733.689 254.6 736.905 254.6 740.016 254.5L739.984 253.5C736.895 253.6 733.711 253.6 730.329 253.401L730.271 254.399ZM690.378 252.4C704.176 252.999 717.473 253.699 730.273 254.399L730.327 253.401C717.527 252.701 704.225 252.001 690.422 251.4L690.378 252.4ZM689.068 253.276C689.188 252.955 689.355 252.748 689.552 252.616C689.752 252.483 690.024 252.4 690.4 252.4V251.4C689.876 251.4 689.398 251.517 688.998 251.784C688.595 252.052 688.312 252.445 688.132 252.924L689.068 253.276ZM679.264 277.587L689.064 253.287L688.136 252.913L678.336 277.213L679.264 277.587ZM679.3 277.5V277.4H678.3V277.5H679.3ZM659.947 337.631C666.374 341.406 674.699 342 682.5 342V341C674.701 341 666.626 340.394 660.453 336.769L659.947 337.631ZM657.314 331.984C657.041 333.127 657.117 334.195 657.573 335.163C658.025 336.124 658.83 336.94 659.937 337.625L660.463 336.775C659.47 336.16 658.825 335.476 658.477 334.737C658.133 334.005 658.059 333.173 658.286 332.216L657.314 331.984ZM664.236 312.314C661.232 319.824 658.926 326.341 657.319 331.963L658.281 332.237C659.875 326.659 662.168 320.176 665.164 312.686L664.236 312.314ZM670.697 295.9C668.593 301.307 666.46 306.788 664.236 312.313L665.164 312.687C667.39 307.155 669.525 301.669 671.629 296.263L670.697 295.9ZM673.735 288.117C672.724 290.692 671.714 293.287 670.697 295.9L671.629 296.263C672.646 293.65 673.656 291.056 674.665 288.483L673.735 288.117ZM676.1 286.6C675.152 286.6 674.124 287.078 673.732 288.124L674.668 288.476C674.876 287.922 675.448 287.6 676.1 287.6V286.6ZM689.468 287.805C685.053 287.203 680.637 286.801 676.122 286.6L676.078 287.6C680.562 287.799 684.947 288.197 689.332 288.795L689.468 287.805ZM717.302 303.702C710.614 294.685 701.289 289.421 689.468 287.805L689.332 288.795C700.911 290.379 709.986 295.515 716.498 304.298L717.302 303.702ZM708.97 333.921C713.948 330.721 718.079 325.937 719.947 320.564C721.822 315.172 721.409 309.196 717.3 303.701L716.5 304.299C720.391 309.504 720.778 315.128 719.003 320.236C717.221 325.363 713.252 329.979 708.43 333.079L708.97 333.921ZM695.849 339.977C700.389 338.565 704.829 336.547 708.968 333.922L708.432 333.078C704.371 335.653 700.011 337.635 695.551 339.023L695.849 339.977ZM682.5 342C686.946 342 691.398 341.394 695.852 339.976L695.548 339.024C691.202 340.406 686.854 341 682.5 341V342Z" fill="black"/>
<path fill-rule="evenodd" clip-rule="evenodd" d="M394.4 326C394.5 325 394.2 324.9 393.5 325.6C389.5 329.8 385.1 333.8 380.6 336.5C368.7 343.5 360.7 336.4 360 324.1C359.5 316.4 360.3 309.3 362.2 303C365.9 290.8 372.3 279.7 381.5 269.7C384.6 266.3 388.4 264.9 392.7 263.5C400.7 260.8 406.7 262.9 410.8 270C412 272.1 412.8 274.5 413.2 277.3C414.6 286.9 413.4 296.6 409.5 305.6C409.284 306.084 409.068 306.567 408.853 307.048C406.176 313.027 403.588 318.807 402.2 325.1C401.9 326.4 401.9 327.6 402.3 328.7C402.3 328.8 402.4 329 402.5 329.1C402.9 329.6 403.7 329.6 404.2 329.2C406.8 327 409.2 324 411.6 320.3C416.9 311.8 421.5 302.8 425.3 293.1C428.2 285.8 436.8 289.7 434.5 296C429.7 309.1 423.6 320.4 416 330C412.7 334.2 408.7 336.9 404 338.1C396.1 340.1 394.2 332 394.4 326ZM390.4 318.5C397.8 308.9 403.5 297.5 405 285.4C405.4 282 404.8 275.4 401.5 273.1C398.5 271 393.4 273 390.9 274.9C388.5 276.7 386.4 278.8 384.5 281.2C374.3 294 368.3 309.2 370 325.8C370.5 331.2 374.7 331.8 378.5 329.4C383 326.5 387 322.9 390.4 318.5Z" fill="#FF0000"/>
<path fill-rule="evenodd" clip-rule="evenodd" d="M838.6 333C836.7 325.6 836 318.2 836.4 310.8C836.4 310.3 836.2 310.1 835.9 310.3C833.1 310.8 830.2 311.6 827.2 312.9C826 313.4 825.3 314.2 825 315.4C823.3 322.6 821.8 329.8 820.4 337C819.8 340 818.1 341.2 815.1 340.6H814.9C812 340 810.7 338.3 811.2 335.3C813.1 323.8 815.6 312.9 818.7 302.5C819.328 300.406 819.951 298.312 820.573 296.219C822.626 289.317 824.675 282.429 826.9 275.6C828.6 270.1 836.1 270.4 836.4 276.1C836.4 277 836.1 278.5 835.5 280.5C833.4 287.4 831.3 294.2 829.2 300.9C828.9 301.6 829.2 301.8 829.9 301.6L837 299.3C837.7 299.1 838.3 298.5 838.5 297.8C841.6 288.9 846 281.3 853.2 275C860.6 268.5 870.4 265.8 879.4 269.7C890.7 274.6 892.1 290.7 890.5 301.8C888.2 317.9 881.9 334.4 869.6 344.6C867.2 346.6 864 347.9 860 348.5C856.8 348.9 853.8 348.6 851.1 347.6C844.6 345.2 840.4 340.3 838.6 333ZM881.1 289.5C881.8 298.3 880.4 307.5 876.8 317C874.5 322.9 871.2 329.5 866.9 333.9C863.3 337.6 857.5 340.3 852.6 337.7C851.3 336.9 850.2 335.6 849.6 333.8C846.6 325.4 845.5 317.4 846.2 309.9C847.4 296.8 854.1 283.7 866.5 278.7C875.3 275.1 880.4 281.4 881.1 289.5Z" fill="#FF0000"/>
<path d="M61.6 215.8L991.6 215.7C992.6 215.7 993.4 216.5 993.4 217.5C993.3 301.1 993.4 384.8 993.5 468.4C993.5 469.5 993.4 470.6 993.3 471.7C993.2 472.1 993 472.3 992.6 472.3C991.1 472.4 989.7 472.2 988.4 471.6C977 466.5 963.7 460.9 948.3 454.7C943.8 452.9 939.4 451.1 935 449.2C930 447.1 925 445.2 920 443.5C918 442.8 916 442.1 914.1 441.4C893.5 433.9 873.1 427 852.6 420.7C848 419.3 843.4 417.9 838.6 416.6C833.9 415.3 829.2 414 824.6 412.7C807.6 407.9 790.6 403.7 773.5 400L768.6 398.8L740.1 393C725.8 390.3 714 388.2 704.9 386.8C683.8 383.5 663.1 380.9 642.9 378.9C568 371.4 493.1 371.1 418.2 377.8C418.1 377.8 418.1 377.8 418 377.9C418 377.9 418 377.9 418 378C418.1 378 418.1 378.1 418 378.1C400.8 379.6 383.7 381.6 366.8 384L357.2 385.4L340.3 388L329 389.9C238 405.8 150.3 432.6 66 470.1C63.8 471.1 61.5 471.9 59.1 472.6C58.3 472.8 57.4 472.4 57.1 471.5C57.1 471.4 57 471.2 57 471.1C57 469.9 56.9 468.8 56.9 467.6C56.7 376.1 56.7 293.6 56.9 220.2C56.9 219.1 56.9 217.9 56.9 216.7C56.9 216.3 57.3 215.9 57.7 215.9L61.6 215.8ZM618.5 372.8C727.5 381.6 833.1 405.7 935.1 445.3C947.5 450.1 960.1 455.1 972.5 460.5C978.1 462.9 983.5 465.3 988.9 467.6C989.4 467.8 989.6 467.6 989.6 467.1V220.1C989.6 219.8 989.4 219.6 989.1 219.6H61.4C60.9 219.6 60.6 219.8 60.6 220.4V467.4C60.6 467.6 60.8 467.8 61.1 467.8C61.2 467.8 61.2 467.8 61.3 467.8C189.3 410.6 322.9 378.3 462.1 370.8C514.7 368 566.9 368.7 618.5 372.8Z" fill="#FF0000"/>
<path fill-rule="evenodd" clip-rule="evenodd" d="M574.792 265.254C585.792 267.954 591.792 275.354 592.992 287.354C593.992 297.154 591.892 305.854 588.392 315.054C585.492 322.454 582.192 328.654 578.292 333.654C569.492 344.954 555.692 350.154 543.092 340.354C540.692 338.554 539.592 337.554 538.992 335.554C536.992 332.954 535.492 325.954 535.192 321.454C534.092 303.554 537.492 284.854 551.492 273.054C555.192 270.054 560.092 266.954 564.992 266.254C565.785 266.126 566.618 265.946 567.468 265.762C569.939 265.226 572.559 264.659 574.792 265.254ZM575.3 275.9C587.9 281.8 583.9 299.7 580 309.7C576.2 319.4 571.7 328.2 563.8 334.4C561.1 336.6 558 337.2 554.7 336.3C551.3 335.3 548.9 333.5 547.5 330.8C545.8 327.6 544.9 324.2 544.7 320.8C544.2 312.9 544.8 305.1 546.3 297.5C548.471 289.943 549.995 288.332 552.432 285.757C553.026 285.129 553.675 284.443 554.4 283.6C557.8 279.6 562.2 276.9 567.4 275.5C570.4 274.7 573 274.8 575.3 275.9Z" fill="#FF0000"/>
</g>
<path fill-rule="evenodd" clip-rule="evenodd" d="M651 0H434V117H651V0ZM602 31H482V86H602V31Z" fill="black"/>
<defs>
<clipPath id="clip0_0_1">
<rect width="1049" height="327" fill="white" transform="translate(0 186)"/>
</clipPath>
</defs>
</svg>
