<svg id="Layer_1" data-name="Layer 1" xmlns="http://www.w3.org/2000/svg" viewBox="0 0 122.88 121.91"><title>shaker</title><path d="M84.54,68.88,53,37.36a3.74,3.74,0,0,0-5.22,0l0,0a3.71,3.71,0,0,0,0,5.22L79.3,74.12a3.71,3.71,0,0,0,5.24-5.24Zm6.17,26.57A2.93,2.93,0,0,1,90,89.64c3.68-.43,6.49-1.49,8.36-3.27s2.85-4.22,3.05-7.62a2.92,2.92,0,0,1,5.83.35c-.3,5-2,8.75-4.86,11.5s-6.77,4.26-11.69,4.85Zm11.16,14.81a2.92,2.92,0,0,1,.46-5.83l.83.06h0c4.23.16,7.53-1.11,9.81-3.34a14.71,14.71,0,0,0,4-9.51c0-.41.06-.7.06-.88a2.92,2.92,0,1,1,5.83.21c0,.5,0,.88-.06,1.13a20.49,20.49,0,0,1-5.75,13.21c-3.41,3.33-8.17,5.24-14.13,5l-1.07-.06ZM33.24,32.86a2.93,2.93,0,0,1-5.81-.69c.59-4.92,2.16-8.85,4.85-11.69s6.54-4.56,11.5-4.86a2.92,2.92,0,0,1,.35,5.83c-3.4.2-5.91,1.24-7.62,3.05s-2.84,4.68-3.27,8.36ZM18.45,20.55a2.92,2.92,0,0,1-5.83.46c0-.24,0-.6-.06-1.07-.23-6,1.68-10.72,5-14.13A20.49,20.49,0,0,1,30.78.06L31.91,0a2.92,2.92,0,0,1,.21,5.83c-.18,0-.47,0-.88.06a14.71,14.71,0,0,0-9.51,4c-2.23,2.28-3.5,5.58-3.34,9.81h0c0,.15,0,.43.06.83Zm2.74,55.74L23.89,79a2.66,2.66,0,0,1-3.76,3.76L17.69,80.3,6.84,92.71a7.09,7.09,0,0,0-1.79,4.63,5.7,5.7,0,0,0,1.69,4.1l13.73,13.73a5.74,5.74,0,0,0,4.1,1.69,7,7,0,0,0,4.63-1.8l12.41-10.84-2.74-2.74a2.66,2.66,0,1,1,3.76-3.76l3,3,5.26-4.6-3.32-3.32A2.66,2.66,0,1,1,51.32,89l3.58,3.58L60.16,88l-3.91-3.9A2.66,2.66,0,1,1,60,80.34l4.16,4.16L74,75.94l-28-28-8.56,9.79,3.86,3.87a2.66,2.66,0,1,1-3.76,3.76L33.9,61.75,29.3,67l3.28,3.28a2.66,2.66,0,0,1-3.76,3.76l-3-3-4.61,5.26ZM94.74,34.74l-7.55-7.55a3,3,0,0,0-2.14-.88h0a3,3,0,0,0-2.15.89h0l-6.55,6.55L88.2,45.58,94.74,39a3.05,3.05,0,0,0,0-4.29Zm-4-11.12,7.55,7.55a8.09,8.09,0,0,1,0,11.43l-7,7a2.2,2.2,0,0,1,0,.44L89,66.35A8.76,8.76,0,0,1,77.84,79.24L32.51,118.85a12.12,12.12,0,0,1-7.94,3.06,10.7,10.7,0,0,1-7.67-3.17L3.16,105A10.73,10.73,0,0,1,0,97.34,12.12,12.12,0,0,1,3.06,89.4L42.67,44.07a8.77,8.77,0,0,1,1.52-10.25l0,0a8.79,8.79,0,0,1,11.37-.86L71.71,30.7a2.36,2.36,0,0,1,.6-.05l7-7h0a8,8,0,0,1,5.71-2.35h0a8.06,8.06,0,0,1,5.71,2.36Zm-6.2,38.13L86.1,50.63,71.31,35.84,60.19,37.38,84.56,61.75Z"/></svg>
